<svg width="370" height="402" viewBox="0 0 370 402" fill="none" xmlns="http://www.w3.org/2000/svg">
<path d="M98.4619 324.452L83.2099 310.147C82.2029 309.203 80.6209 309.253 79.6759 310.261C78.7319 311.268 78.7829 312.85 79.7899 313.794L95.0419 328.099C96.0489 329.043 97.6309 328.993 98.5749 327.986C99.5199 326.979 99.4689 325.396 98.4619 324.452Z" fill="#FF570A"/>
<path d="M88.4619 103.452L73.2099 89.147C72.2029 88.203 70.6209 88.253 69.6759 89.261C68.7319 90.268 68.7829 91.85 69.7899 92.794L85.0419 107.099C86.0489 108.043 87.6309 107.993 88.5749 106.986C89.5199 105.979 89.4689 104.396 88.4619 103.452Z" fill="#17BEBB"/>
<path d="M83.7939 328.462L98.1009 313.21C99.0449 312.203 98.9949 310.621 97.9879 309.677C96.9809 308.732 95.3989 308.783 94.4539 309.79L80.1469 325.042C79.2029 326.049 79.2529 327.631 80.2599 328.575C81.2669 329.52 82.8489 329.469 83.7939 328.462Z" fill="#FF570A"/>
<path d="M73.7939 107.462L88.1009 92.2098C89.0449 91.2028 88.9949 89.6208 87.9879 88.6768C86.9809 87.7318 85.3989 87.7828 84.4539 88.7898L70.1469 104.042C69.2029 105.049 69.2529 106.631 70.2599 107.575C71.2669 108.52 72.8489 108.469 73.7939 107.462Z" fill="#17BEBB"/>
<path d="M104.483 161.281C101.832 163.884 98.4044 165.161 94.9728 165.141C91.5399 165.116 88.1494 163.796 85.5638 161.166C82.9795 158.535 81.7195 155.123 81.7544 151.69C81.7949 148.259 83.1314 144.855 85.7805 142.249C86.7655 141.281 86.7793 139.698 85.812 138.714C84.8441 137.729 83.2616 137.715 82.2766 138.683C78.6562 142.238 76.8035 146.94 76.7547 151.636C76.6996 156.329 78.4495 161.063 81.9975 164.671C85.5427 168.281 90.2454 170.114 94.9398 170.141C99.6356 170.174 104.369 168.404 107.987 164.847C108.972 163.879 108.986 162.296 108.018 161.311C107.05 160.326 105.468 160.313 104.483 161.281Z" fill="#17BEBB"/>
<path d="M179.91 352.769C180.119 353.218 180.167 353.526 180.16 353.864C180.15 354.159 180.079 354.492 179.918 354.903C179.643 355.618 179.067 356.526 178.332 357.54C177.243 359.076 175.808 360.823 174.873 363.082C174.411 364.21 174.091 365.49 174.091 366.877C174.088 368.262 174.418 369.726 175.108 371.166C175.702 372.411 177.195 372.941 178.441 372.346C179.687 371.751 180.215 370.259 179.621 369.013C179.272 368.277 179.133 367.675 179.099 367.121C179.07 366.637 179.124 366.178 179.255 365.691C179.482 364.844 179.976 363.907 180.645 362.905C181.642 361.39 183.014 359.807 184.053 357.861C184.564 356.884 184.995 355.78 185.124 354.523C185.259 353.27 185.04 351.891 184.423 350.616C183.829 349.37 182.336 348.842 181.09 349.436C179.844 350.03 179.316 351.523 179.91 352.769Z" fill="#17BEBB"/>
<path d="M167.395 326.528C167.604 326.978 167.652 327.285 167.645 327.623C167.635 327.918 167.565 328.252 167.404 328.663C167.129 329.378 166.552 330.285 165.819 331.3C164.729 332.834 163.294 334.582 162.357 336.84C161.895 337.968 161.575 339.248 161.576 340.635C161.572 342.02 161.903 343.484 162.592 344.923C163.187 346.169 164.679 346.698 165.925 346.103C167.172 345.509 167.7 344.017 167.105 342.77C166.757 342.036 166.617 341.433 166.584 340.88C166.555 340.396 166.609 339.937 166.74 339.45C166.967 338.603 167.46 337.667 168.13 336.664C169.126 335.149 170.5 333.566 171.538 331.62C172.049 330.644 172.479 329.539 172.609 328.282C172.744 327.029 172.525 325.65 171.908 324.376C171.314 323.129 169.821 322.601 168.575 323.196C167.329 323.79 166.801 325.282 167.395 326.528Z" fill="#17BEBB"/>
<path d="M184.423 350.616C183.896 349.502 183.125 348.567 182.231 347.897C181.451 347.307 180.6 346.915 179.765 346.652C178.297 346.193 176.861 346.083 175.498 345.999C173.456 345.893 171.555 345.838 170.171 345.407C169.476 345.196 168.915 344.918 168.431 344.527C167.949 344.132 167.51 343.614 167.104 342.77C166.51 341.525 165.018 340.996 163.772 341.59C162.525 342.185 161.997 343.677 162.591 344.923C163.188 346.179 163.968 347.235 164.874 348.06C165.666 348.783 166.545 349.326 167.435 349.718C168.998 350.405 170.571 350.657 172.031 350.796C174.216 350.99 176.219 350.962 177.581 351.248C178.263 351.383 178.755 351.575 179.09 351.797C179.426 352.025 179.658 352.259 179.91 352.768C180.505 354.015 181.996 354.543 183.243 353.949C184.488 353.354 185.018 351.862 184.423 350.616Z" fill="#17BEBB"/>
<path d="M171.908 324.376C171.381 323.262 170.61 322.327 169.716 321.657C168.936 321.067 168.086 320.676 167.25 320.412C165.783 319.954 164.346 319.844 162.984 319.76C160.942 319.654 159.04 319.598 157.656 319.168C156.96 318.956 156.401 318.679 155.916 318.288C155.433 317.893 154.995 317.375 154.59 316.532C153.996 315.286 152.504 314.757 151.257 315.352C150.011 315.946 149.483 317.438 150.077 318.685C150.674 319.94 151.453 320.995 152.36 321.821C153.151 322.544 154.03 323.087 154.92 323.479C156.483 324.166 158.057 324.418 159.516 324.557C161.701 324.75 163.704 324.723 165.066 325.009C165.749 325.144 166.24 325.336 166.575 325.558C166.911 325.786 167.143 326.019 167.395 326.528C167.99 327.775 169.481 328.303 170.728 327.708C171.973 327.114 172.503 325.622 171.908 324.376Z" fill="#17BEBB"/>
<path d="M185.629 107.634C186.106 107.498 186.417 107.498 186.749 107.558C187.039 107.614 187.358 107.736 187.738 107.959C188.401 108.343 189.208 109.054 190.095 109.938C191.441 111.254 192.942 112.945 195.027 114.222C196.069 114.855 197.283 115.371 198.653 115.588C200.021 115.808 201.518 115.711 203.048 115.254C204.371 114.862 205.128 113.471 204.735 112.147C204.343 110.823 202.951 110.068 201.628 110.46C200.846 110.69 200.23 110.733 199.677 110.68C199.195 110.632 198.75 110.507 198.29 110.302C197.489 109.946 196.641 109.311 195.756 108.493C194.415 107.272 193.066 105.669 191.307 104.338C190.421 103.681 189.398 103.083 188.177 102.758C186.96 102.429 185.564 102.43 184.209 102.84C182.885 103.232 182.13 104.624 182.522 105.947C182.914 107.271 184.305 108.026 185.629 107.634Z" fill="#FF570A"/>
<path d="M157.754 115.89C158.231 115.754 158.542 115.755 158.874 115.815C159.164 115.871 159.483 115.992 159.863 116.215C160.526 116.599 161.332 117.31 162.22 118.194C163.565 119.51 165.066 121.201 167.15 122.479C168.193 123.112 169.406 123.628 170.776 123.844C172.144 124.065 173.641 123.968 175.17 123.511C176.495 123.119 177.25 121.728 176.857 120.404C176.465 119.08 175.074 118.325 173.75 118.717C172.97 118.946 172.353 118.99 171.801 118.937C171.319 118.889 170.874 118.764 170.414 118.558C169.613 118.202 168.765 117.569 167.88 116.75C166.539 115.529 165.191 113.925 163.431 112.595C162.546 111.937 161.522 111.339 160.301 111.015C159.085 110.686 157.689 110.686 156.334 111.096C155.009 111.488 154.255 112.88 154.647 114.203C155.039 115.527 156.429 116.282 157.754 115.89Z" fill="#FF570A"/>
<path d="M184.208 102.84C183.026 103.186 181.981 103.801 181.18 104.58C180.475 105.258 179.955 106.037 179.565 106.821C178.882 108.198 178.548 109.6 178.252 110.933C177.828 112.933 177.477 114.802 176.834 116.101C176.517 116.755 176.155 117.265 175.693 117.683C175.227 118.097 174.647 118.449 173.75 118.718C172.427 119.11 171.671 120.501 172.063 121.825C172.455 123.149 173.847 123.904 175.17 123.512C176.505 123.119 177.669 122.514 178.626 121.748C179.464 121.079 180.137 120.296 180.664 119.479C181.587 118.042 182.082 116.527 182.448 115.108C182.981 112.98 183.267 110.997 183.762 109.697C184.003 109.044 184.269 108.588 184.54 108.292C184.819 107.996 185.086 107.803 185.628 107.634C186.952 107.242 187.708 105.851 187.315 104.527C186.923 103.204 185.532 102.448 184.208 102.84Z" fill="#FF570A"/>
<path d="M156.333 111.096C155.151 111.442 154.107 112.057 153.305 112.836C152.6 113.514 152.081 114.292 151.69 115.077C151.008 116.454 150.674 117.856 150.379 119.188C149.954 121.188 149.602 123.058 148.961 124.358C148.642 125.012 148.281 125.521 147.819 125.938C147.353 126.354 146.773 126.705 145.877 126.973C144.553 127.366 143.798 128.756 144.19 130.08C144.583 131.405 145.973 132.16 147.297 131.767C148.631 131.375 149.795 130.77 150.752 130.004C151.59 129.335 152.264 128.552 152.79 127.734C153.713 126.298 154.208 124.783 154.574 123.364C155.107 121.236 155.393 119.253 155.889 117.953C156.129 117.299 156.396 116.844 156.667 116.548C156.945 116.251 157.211 116.059 157.754 115.89C159.078 115.498 159.833 114.107 159.441 112.783C159.049 111.46 157.658 110.704 156.333 111.096Z" fill="#FF570A"/>
<path d="M209.513 174.913L177.274 159.189C176.033 158.583 174.536 159.098 173.932 160.34C173.326 161.581 173.841 163.077 175.083 163.682L207.321 179.406C208.562 180.012 210.059 179.497 210.664 178.255C211.27 177.014 210.754 175.517 209.513 174.913Z" fill="#FF570A"/>
<path d="M63.1814 125.674L32.763 144.682C31.5915 145.413 31.2354 146.955 31.9678 148.126C32.699 149.297 34.2415 149.654 35.4122 148.921L65.8306 129.914C67.0021 129.182 67.3582 127.64 66.6258 126.469C65.8946 125.298 64.3522 124.942 63.1814 125.674Z" fill="#FF570A"/>
<path d="M132.481 276.042L101.576 294.247C100.386 294.947 99.9893 296.479 100.691 297.669C101.391 298.859 102.924 299.256 104.113 298.554L135.019 280.349C136.209 279.649 136.605 278.116 135.904 276.927C135.204 275.737 133.671 275.34 132.481 276.042Z" fill="#17BEBB"/>
<path d="M196.105 230.071L194.775 227.954C194.143 228.35 193.46 228.533 192.773 228.534C192.146 228.534 191.523 228.377 190.972 228.079C190.421 227.78 189.944 227.348 189.581 226.772C189.184 226.139 189.001 225.456 189 224.768C189 224.143 189.157 223.52 189.454 222.969C189.753 222.418 190.185 221.941 190.761 221.578C191.389 221.184 192.071 221.001 192.759 221C193.385 221 194.01 221.157 194.561 221.455C195.113 221.754 195.591 222.186 195.953 222.761L195.954 222.763C196.35 223.392 196.532 224.073 196.533 224.76C196.533 225.387 196.376 226.011 196.078 226.563C195.779 227.115 195.347 227.593 194.773 227.955L194.775 227.954L196.105 230.071L197.437 232.187C198.754 231.359 199.786 230.223 200.478 228.938C201.171 227.652 201.533 226.217 201.533 224.76C201.534 223.167 201.095 221.54 200.185 220.098L200.186 220.1C199.358 218.781 198.222 217.748 196.936 217.055C195.65 216.361 194.215 216 192.759 216C191.166 215.999 189.541 216.438 188.099 217.345C186.781 218.173 185.748 219.308 185.055 220.593C184.362 221.878 184 223.313 184 224.768C183.999 226.363 184.439 227.99 185.348 229.433C186.175 230.75 187.31 231.784 188.595 232.478C189.881 233.172 191.316 233.533 192.773 233.534C194.366 233.535 195.992 233.095 197.435 232.188L197.437 232.187L196.105 230.071Z" fill="#17BEBB"/>
<path d="M80.105 14.071L78.775 11.954C78.143 12.35 77.46 12.533 76.773 12.534C76.146 12.534 75.523 12.377 74.972 12.079C74.421 11.78 73.944 11.348 73.581 10.772C73.184 10.139 73.001 9.45601 73 8.76801C73 8.14301 73.157 7.52003 73.454 6.96903C73.753 6.41803 74.185 5.941 74.761 5.578C75.389 5.184 76.071 5.001 76.759 5C77.385 5 78.01 5.15702 78.561 5.45502C79.113 5.75402 79.591 6.18602 79.953 6.76102L79.954 6.763C80.35 7.392 80.532 8.07301 80.533 8.76001C80.533 9.38701 80.376 10.011 80.078 10.563C79.779 11.115 79.347 11.593 78.773 11.955L78.775 11.954L80.105 14.071L81.437 16.187C82.754 15.359 83.786 14.223 84.478 12.938C85.171 11.652 85.533 10.217 85.533 8.76001C85.534 7.16701 85.095 5.54002 84.185 4.09802L84.186 4.10001C83.358 2.78101 82.222 1.74802 80.936 1.05502C79.65 0.361025 78.215 1.7045e-06 76.759 1.7045e-06C75.166 -0.000998296 73.541 0.438003 72.099 1.345C70.781 2.173 69.748 3.30802 69.055 4.59302C68.362 5.87802 68 7.31301 68 8.76801C67.999 10.363 68.439 11.99 69.348 13.433C70.175 14.75 71.31 15.784 72.595 16.478C73.881 17.172 75.316 17.533 76.773 17.534C78.366 17.535 79.992 17.095 81.435 16.188L81.437 16.187L80.105 14.071Z" fill="#17BEBB"/>
<path d="M121.105 337.071L119.775 334.954C119.143 335.35 118.46 335.533 117.773 335.534C117.146 335.534 116.523 335.377 115.972 335.079C115.421 334.78 114.944 334.348 114.581 333.772C114.184 333.139 114.001 332.456 114 331.768C114 331.143 114.157 330.52 114.454 329.969C114.753 329.418 115.185 328.941 115.761 328.578C116.389 328.184 117.071 328.001 117.759 328C118.385 328 119.01 328.157 119.561 328.455C120.113 328.754 120.591 329.186 120.953 329.761L120.954 329.763C121.35 330.392 121.532 331.073 121.533 331.76C121.533 332.387 121.376 333.011 121.078 333.563C120.779 334.115 120.347 334.593 119.773 334.955L119.775 334.954L121.105 337.071L122.437 339.187C123.754 338.359 124.786 337.223 125.478 335.938C126.171 334.652 126.533 333.217 126.533 331.76C126.534 330.167 126.095 328.54 125.185 327.098L125.186 327.1C124.358 325.781 123.222 324.748 121.936 324.055C120.65 323.361 119.215 323 117.759 323C116.166 322.999 114.541 323.438 113.099 324.345C111.781 325.173 110.748 326.308 110.055 327.593C109.362 328.878 109 330.313 109 331.768C108.999 333.363 109.439 334.99 110.348 336.433C111.175 337.75 112.31 338.784 113.595 339.478C114.881 340.172 116.316 340.533 117.773 340.534C119.366 340.535 120.992 340.095 122.435 339.188L122.437 339.187L121.105 337.071Z" fill="#FF570A"/>
<path d="M111.105 116.071L109.775 113.954C109.143 114.35 108.46 114.533 107.773 114.534C107.146 114.534 106.523 114.377 105.972 114.079C105.421 113.78 104.944 113.348 104.581 112.772C104.184 112.139 104.001 111.456 104 110.768C104 110.143 104.157 109.52 104.454 108.969C104.753 108.418 105.185 107.941 105.761 107.578C106.389 107.184 107.071 107.001 107.759 107C108.385 107 109.01 107.157 109.561 107.455C110.113 107.754 110.591 108.186 110.953 108.761L110.954 108.763C111.35 109.392 111.532 110.073 111.533 110.76C111.533 111.387 111.376 112.011 111.078 112.563C110.779 113.115 110.347 113.593 109.773 113.955L109.775 113.954L111.105 116.071L112.437 118.187C113.754 117.359 114.786 116.223 115.478 114.938C116.171 113.652 116.533 112.217 116.533 110.76C116.534 109.167 116.095 107.54 115.185 106.098L115.186 106.1C114.358 104.781 113.222 103.748 111.936 103.055C110.65 102.361 109.215 102 107.759 102C106.166 101.999 104.541 102.438 103.099 103.345C101.781 104.173 100.748 105.308 100.055 106.593C99.3622 107.878 99.0002 109.313 99.0002 110.768C98.9992 112.363 99.4392 113.99 100.348 115.433C101.175 116.75 102.31 117.784 103.595 118.478C104.881 119.172 106.316 119.533 107.773 119.534C109.366 119.535 110.992 119.095 112.435 118.188L112.437 118.187L111.105 116.071Z" fill="#17BEBB"/>
<path d="M245.951 300.906L235.129 318.799C234.415 319.98 234.793 321.517 235.976 322.232C237.157 322.946 238.694 322.567 239.408 321.386L250.229 303.493C250.943 302.312 250.565 300.775 249.384 300.061C248.203 299.346 246.665 299.725 245.951 300.906Z" fill="#17BEBB"/>
<path d="M252.923 314.42L235.029 303.597C233.848 302.883 232.311 303.261 231.597 304.442C230.882 305.623 231.261 307.16 232.442 307.875L250.336 318.698C251.517 319.412 253.054 319.035 253.768 317.853C254.483 316.672 254.104 315.135 252.923 314.42Z" fill="#17BEBB"/>
<path d="M299.185 273.212C302.282 275.263 304.244 278.351 304.938 281.711C305.627 285.074 305.041 288.665 303.006 291.741C300.97 294.816 297.894 296.758 294.529 297.438C291.164 298.111 287.557 297.512 284.457 295.462C283.306 294.7 281.755 295.016 280.993 296.167C280.231 297.318 280.546 298.869 281.698 299.631C285.928 302.433 290.912 303.268 295.516 302.339C300.118 301.417 304.385 298.722 307.176 294.501C309.97 290.283 310.785 285.302 309.836 280.704C308.892 276.104 306.176 271.842 301.944 269.042C300.793 268.28 299.242 268.596 298.48 269.747C297.717 270.899 298.033 272.45 299.185 273.212Z" fill="#17BEBB"/>
<path d="M272.943 321.014L297.86 346.815C298.819 347.809 300.401 347.837 301.394 346.877C302.388 345.918 302.416 344.336 301.456 343.343L276.539 317.541C275.581 316.547 273.998 316.519 273.005 317.479C272.011 318.438 271.983 320.021 272.943 321.014Z" fill="#FF570A"/>
<path d="M253.586 276.134L251.792 277.875C252.311 278.411 252.632 279.041 252.775 279.713C252.906 280.326 252.882 280.968 252.705 281.569C252.527 282.17 252.204 282.726 251.716 283.201C251.179 283.721 250.549 284.042 249.876 284.186C249.265 284.316 248.623 284.292 248.022 284.116C247.421 283.938 246.865 283.615 246.39 283.127C245.874 282.595 245.553 281.966 245.409 281.293C245.279 280.68 245.302 280.036 245.479 279.436C245.657 278.833 245.98 278.276 246.467 277.802L246.469 277.801C247.002 277.283 247.63 276.963 248.302 276.82C248.915 276.689 249.558 276.713 250.16 276.89C250.762 277.067 251.32 277.391 251.793 277.877L251.792 277.875L253.586 276.134L255.379 274.391C254.295 273.275 252.969 272.502 251.569 272.092C250.167 271.682 248.688 271.626 247.263 271.929C245.704 272.259 244.204 273.027 242.983 274.217L242.985 274.215C241.866 275.299 241.092 276.625 240.682 278.027C240.27 279.429 240.216 280.908 240.518 282.332C240.848 283.891 241.616 285.389 242.803 286.611C243.887 287.728 245.212 288.502 246.613 288.913C248.014 289.324 249.493 289.379 250.916 289.077C252.476 288.746 253.976 287.978 255.199 286.789C256.315 285.706 257.09 284.381 257.502 282.979C257.913 281.577 257.968 280.098 257.666 278.673C257.336 277.115 256.568 275.616 255.38 274.393L255.379 274.391L253.586 276.134Z" fill="#17BEBB"/>
<path d="M177.5 270.5V273H206.655V299.654H180V270.5H177.5V273V270.5H175V302.154C175 302.813 175.267 303.457 175.732 303.922C176.198 304.388 176.842 304.654 177.5 304.654H209.155C209.813 304.654 210.457 304.388 210.922 303.922C211.388 303.457 211.655 302.813 211.655 302.154V270.5C211.655 269.842 211.388 269.198 210.922 268.732C210.457 268.267 209.813 268 209.155 268H177.5C176.842 268 176.198 268.267 175.732 268.732C175.267 269.198 175 269.842 175 270.5H177.5Z" fill="#FF570A"/>
<path d="M114.362 30.4887L115.399 32.7636L141.929 20.6732L152.982 44.9273L128.727 55.9809L116.637 29.4519L114.362 30.4887L115.399 32.7636L114.362 30.4887L112.087 31.5254L125.214 60.3293C125.487 60.929 125.997 61.4043 126.613 61.6346C127.231 61.8654 127.927 61.8404 128.526 61.5675L157.33 48.4404C157.929 48.1675 158.405 47.6584 158.635 47.0415C158.866 46.4251 158.842 45.7284 158.569 45.1287L145.442 16.3248C145.169 15.726 144.659 15.2508 144.042 15.02C143.426 14.7897 142.729 14.8138 142.13 15.0866L113.325 28.2138C112.727 28.4866 112.251 28.9967 112.02 29.613C111.79 30.2299 111.814 30.9266 112.087 31.5254L114.362 30.4887Z" fill="#FF570A"/>
<path d="M48.22 235.826L49.6895 237.848L73.2764 220.711L88.9432 242.275L67.3789 257.942L50.2426 234.356L48.22 235.826L46.1975 237.295L64.8032 262.904C65.1906 263.437 65.7851 263.801 66.4346 263.904C67.0856 264.007 67.7629 263.843 68.2953 263.457L93.9047 244.85C94.437 244.464 94.8017 243.87 94.904 243.22C95.0076 242.569 94.8451 241.891 94.4578 241.358L75.852 215.75C75.4653 215.217 74.8707 214.853 74.2198 214.75C73.5703 214.647 72.8924 214.81 72.36 215.197L46.7506 233.803C46.2182 234.19 45.8542 234.784 45.7505 235.434C45.6482 236.085 45.8107 236.763 46.1975 237.295L48.22 235.826Z" fill="#17BEBB"/>
<path d="M155.596 215.768L158.012 216.414L163.43 196.146C163.66 195.283 163.413 194.362 162.781 193.731C162.149 193.1 161.227 192.854 160.365 193.086L140.113 198.533L119.852 203.975C118.99 204.207 118.316 204.881 118.085 205.744C117.855 206.607 118.102 207.527 118.734 208.159L133.576 222.977L148.415 237.803C149.047 238.434 149.968 238.681 150.831 238.449C151.693 238.217 152.367 237.543 152.598 236.68L158.012 216.414L155.596 215.768L153.181 215.123L148.885 231.204L137.109 219.44L125.332 207.68L141.411 203.362L157.48 199.04L153.181 215.123L155.596 215.768Z" fill="#FF570A"/>
<path d="M308.156 80.0019L336.802 101.588C337.904 102.42 339.472 102.2 340.302 101.096C341.134 99.9938 340.914 98.4262 339.811 97.5956L311.164 76.0093C310.062 75.1776 308.494 75.398 307.664 76.5013C306.832 77.6038 307.053 79.1713 308.156 80.0019Z" fill="#17BEBB"/>
<path d="M303.246 173.239L304.553 171.108L279.694 155.874L293.621 133.148L316.348 147.075L301.115 171.933L303.246 173.239L305.378 174.546L321.917 147.556C322.262 146.994 322.37 146.306 322.217 145.666C322.063 145.025 321.653 144.462 321.092 144.118L294.101 127.579C293.54 127.235 292.852 127.125 292.212 127.28C291.572 127.433 291.008 127.842 290.664 128.404L274.124 155.393C273.781 155.954 273.672 156.643 273.826 157.284C273.979 157.923 274.389 158.487 274.95 158.831L301.94 175.371C302.501 175.715 303.19 175.824 303.83 175.671C304.47 175.516 305.034 175.107 305.378 174.546L303.246 173.239Z" fill="#17BEBB"/>
<path d="M243.625 81.7126L243.297 79.2333L222.498 81.9839C221.613 82.1017 220.857 82.6823 220.515 83.5077C220.174 84.3331 220.3 85.279 220.844 85.9866L233.627 102.613L246.408 119.249C246.952 119.956 247.833 120.321 248.718 120.204C249.604 120.086 250.359 119.506 250.701 118.68L258.712 99.2977L266.73 79.9145C267.071 79.0892 266.947 78.1438 266.403 77.4352C265.858 76.7276 264.978 76.3629 264.092 76.4797L243.297 79.2333L243.625 81.7126L243.953 84.1906L260.454 82.0056L254.092 97.3871L247.734 112.768L237.591 99.5654L227.449 86.3735L243.953 84.1906L243.625 81.7126Z" fill="#FF570A"/>
<path d="M228.972 358.54L230.278 356.407L212.383 345.455C211.621 344.99 210.668 344.965 209.883 345.392C209.099 345.818 208.601 346.633 208.579 347.525L208.05 368.49L207.513 389.462C207.491 390.355 207.946 391.192 208.707 391.659C209.47 392.125 210.422 392.149 211.207 391.723L229.63 381.7L248.06 371.683C248.845 371.256 249.343 370.444 249.366 369.55C249.388 368.658 248.934 367.82 248.172 367.354L230.278 356.407L228.972 358.54L227.668 360.672L241.867 369.358L227.242 377.308L212.622 385.26L213.048 368.617L213.468 351.982L227.668 360.672L228.972 358.54Z" fill="#17BEBB"/>
<path d="M24.3402 102.3L24.1427 99.8072L3.22869 101.466C2.33841 101.537 1.55268 102.077 1.16884 102.883C0.784997 103.69 0.860893 104.641 1.36733 105.376L13.2621 122.648L25.1552 139.931C25.6617 140.666 26.522 141.076 27.4126 141.006C28.3029 140.934 29.0877 140.394 29.4725 139.588L38.4862 120.651L47.5084 101.714C47.8922 100.908 47.8176 99.9569 47.3109 99.2208C46.8044 98.4857 45.9441 98.0754 45.0535 98.1457L24.1427 99.8072L24.3402 102.3L24.5384 104.792L41.131 103.474L33.9727 118.501L26.8185 133.528L17.3809 119.813L7.94283 106.108L24.5384 104.792L24.3402 102.3Z" fill="#FF570A"/>
</svg>
