<svg width="501" height="481" viewBox="0 0 501 481" fill="none" xmlns="http://www.w3.org/2000/svg">
<path d="M395.758 281.751L387.198 300.829C386.633 302.089 387.195 303.568 388.456 304.133C389.715 304.698 391.195 304.135 391.759 302.875L400.319 283.797C400.884 282.538 400.322 281.058 399.062 280.493C397.803 279.928 396.322 280.491 395.758 281.751Z" fill="#FF570A"/>
<path d="M190.054 363.157L181.493 382.235C180.929 383.494 181.491 384.974 182.752 385.539C184.011 386.104 185.49 385.541 186.055 384.281L194.615 365.203C195.18 363.943 194.618 362.464 193.358 361.899C192.098 361.333 190.618 361.897 190.054 363.157Z" fill="#17BEBB"/>
<path d="M404.324 294.314L385.246 285.752C383.986 285.188 382.507 285.75 381.942 287.009C381.376 288.269 381.939 289.748 383.199 290.314L402.278 298.876C403.538 299.441 405.017 298.878 405.582 297.619C406.148 296.359 405.584 294.88 404.324 294.314Z" fill="#FF570A"/>
<path d="M198.62 375.72L179.541 367.158C178.282 366.593 176.802 367.156 176.238 368.415C175.672 369.675 176.235 371.154 177.495 371.72L196.574 380.282C197.834 380.847 199.313 380.284 199.878 379.025C200.443 377.765 199.88 376.286 198.62 375.72Z" fill="#17BEBB"/>
<path d="M239.516 329.181C242.84 330.84 245.163 333.665 246.262 336.916C247.356 340.17 247.212 343.806 245.567 347.107C243.921 350.407 241.104 352.709 237.847 353.794C234.59 354.873 230.936 354.717 227.61 353.061C226.374 352.445 224.873 352.947 224.257 354.182C223.641 355.418 224.143 356.918 225.379 357.535C229.919 359.8 234.968 360.021 239.424 358.539C243.879 357.063 247.786 353.867 250.042 349.338C252.301 344.81 252.503 339.767 251 335.32C249.503 330.869 246.288 326.97 241.747 324.707C240.511 324.091 239.01 324.593 238.394 325.829C237.777 327.064 238.28 328.565 239.516 329.181Z" fill="#17BEBB"/>
<path d="M396.014 195.521C396.372 195.177 396.647 195.032 396.969 194.928C397.251 194.842 397.589 194.8 398.03 194.818C398.795 194.845 399.842 195.094 401.04 195.459C402.846 195.989 404.966 196.777 407.405 196.926C408.623 196.995 409.937 196.882 411.249 196.43C412.56 195.982 413.836 195.193 414.973 194.072C415.957 193.104 415.971 191.521 415.004 190.536C414.036 189.551 412.452 189.538 411.468 190.505C410.885 191.075 410.362 191.403 409.849 191.616C409.4 191.8 408.949 191.898 408.446 191.933C407.572 191.994 406.525 191.833 405.359 191.525C403.602 191.077 401.658 190.295 399.481 189.946C398.39 189.781 397.206 189.733 395.976 190.02C394.747 190.301 393.514 190.957 392.51 191.955C391.526 192.922 391.512 194.506 392.479 195.49C393.447 196.475 395.03 196.488 396.014 195.521Z" fill="#17BEBB"/>
<path d="M375.279 215.897C375.636 215.553 375.911 215.408 376.233 215.304C376.515 215.218 376.853 215.175 377.294 215.194C378.059 215.221 379.105 215.471 380.303 215.834C382.109 216.365 384.228 217.153 386.668 217.303C387.886 217.373 389.2 217.259 390.511 216.807C391.822 216.359 393.098 215.57 394.235 214.45C395.22 213.482 395.233 211.899 394.266 210.914C393.298 209.929 391.715 209.915 390.73 210.883C390.149 211.452 389.625 211.78 389.112 211.992C388.664 212.176 388.213 212.275 387.71 212.309C386.835 212.371 385.789 212.21 384.623 211.902C382.866 211.454 380.923 210.671 378.744 210.323C377.654 210.157 376.47 210.11 375.239 210.397C374.011 210.677 372.778 211.333 371.774 212.331C370.789 213.299 370.776 214.882 371.743 215.866C372.711 216.851 374.294 216.865 375.279 215.897Z" fill="#17BEBB"/>
<path d="M392.51 191.955C391.628 192.815 390.995 193.849 390.653 194.913C390.349 195.842 390.255 196.774 390.279 197.65C390.322 199.187 390.686 200.581 391.051 201.896C391.615 203.861 392.182 205.677 392.225 207.126C392.252 207.852 392.171 208.473 391.96 209.058C391.742 209.643 391.396 210.226 390.73 210.884C389.746 211.851 389.731 213.435 390.699 214.42C391.667 215.405 393.25 215.418 394.235 214.45C395.228 213.477 395.972 212.396 396.457 211.271C396.884 210.287 397.111 209.279 397.192 208.31C397.333 206.608 397.058 205.038 396.715 203.613C396.186 201.484 395.509 199.599 395.335 198.219C395.241 197.529 395.262 197.002 395.363 196.613C395.469 196.221 395.615 195.925 396.014 195.521C396.999 194.553 397.013 192.971 396.045 191.986C395.078 191.001 393.495 190.987 392.51 191.955Z" fill="#17BEBB"/>
<path d="M371.774 212.331C370.892 213.192 370.259 214.225 369.917 215.289C369.613 216.219 369.52 217.15 369.543 218.026C369.587 219.562 369.951 220.956 370.315 222.272C370.88 224.237 371.446 226.054 371.49 227.502C371.516 228.23 371.436 228.848 371.225 229.433C371.008 230.019 370.661 230.602 369.996 231.259C369.011 232.227 368.997 233.81 369.965 234.795C370.933 235.78 372.515 235.793 373.5 234.825C374.493 233.853 375.237 232.772 375.722 231.646C376.149 230.662 376.375 229.654 376.457 228.686C376.597 226.984 376.323 225.414 375.98 223.989C375.451 221.86 374.773 219.975 374.6 218.594C374.506 217.905 374.527 217.377 374.628 216.989C374.734 216.596 374.879 216.301 375.279 215.897C376.264 214.929 376.277 213.347 375.309 212.362C374.342 211.378 372.759 211.363 371.774 212.331Z" fill="#17BEBB"/>
<path d="M162.373 269.922C162.089 269.516 161.989 269.221 161.937 268.887C161.896 268.595 161.907 268.254 161.994 267.822C162.141 267.07 162.55 266.076 163.098 264.949C163.904 263.248 165.014 261.278 165.543 258.891C165.802 257.7 165.895 256.384 165.654 255.018C165.416 253.653 164.837 252.269 163.907 250.971C163.106 249.847 161.544 249.585 160.42 250.387C159.296 251.189 159.035 252.751 159.837 253.874C160.308 254.539 160.55 255.107 160.68 255.647C160.792 256.119 160.818 256.58 160.774 257.083C160.698 257.956 160.374 258.964 159.889 260.067C159.17 261.733 158.094 263.53 157.409 265.627C157.075 266.678 156.843 267.84 156.934 269.1C157.019 270.358 157.474 271.678 158.303 272.826C159.104 273.949 160.666 274.211 161.79 273.41C162.914 272.608 163.175 271.046 162.373 269.922Z" fill="#FF570A"/>
<path d="M179.255 293.591C178.971 293.184 178.87 292.89 178.818 292.556C178.777 292.264 178.788 291.923 178.876 291.491C179.022 290.739 179.432 289.745 179.979 288.618C180.785 286.918 181.895 284.948 182.425 282.562C182.684 281.37 182.777 280.054 182.536 278.688C182.299 277.323 181.72 275.939 180.79 274.642C179.988 273.518 178.428 273.256 177.303 274.058C176.179 274.86 175.918 276.421 176.72 277.545C177.19 278.208 177.433 278.777 177.562 279.317C177.674 279.788 177.7 280.25 177.656 280.752C177.58 281.625 177.257 282.633 176.771 283.737C176.053 285.402 174.975 287.199 174.291 289.296C173.957 290.346 173.725 291.509 173.816 292.77C173.9 294.026 174.355 295.346 175.184 296.494C175.986 297.619 177.548 297.879 178.671 297.078C179.795 296.276 180.057 294.715 179.255 293.591Z" fill="#FF570A"/>
<path d="M158.303 272.826C159.015 273.831 159.936 274.619 160.934 275.123C161.804 275.569 162.71 275.807 163.578 275.921C165.103 276.118 166.537 275.977 167.894 275.823C169.923 275.573 171.805 275.296 173.242 275.481C173.964 275.568 174.564 275.745 175.109 276.045C175.653 276.351 176.175 276.785 176.721 277.545C177.522 278.668 179.083 278.93 180.208 278.129C181.332 277.327 181.593 275.765 180.791 274.641C179.985 273.508 179.034 272.604 177.998 271.949C177.093 271.374 176.133 270.992 175.189 270.76C173.53 270.355 171.937 270.38 170.475 270.496C168.29 270.685 166.322 271.06 164.931 271.015C164.235 271.001 163.718 270.897 163.35 270.737C162.979 270.57 162.71 270.38 162.373 269.923C161.571 268.798 160.011 268.537 158.886 269.339C157.763 270.14 157.501 271.702 158.303 272.826Z" fill="#FF570A"/>
<path d="M175.184 296.494C175.896 297.5 176.818 298.287 177.815 298.791C178.686 299.237 179.591 299.474 180.46 299.589C181.984 299.785 183.418 299.644 184.775 299.49C186.804 299.24 188.687 298.965 190.124 299.148C190.847 299.236 191.445 299.412 191.99 299.712C192.535 300.018 193.056 300.452 193.601 301.211C194.403 302.336 195.964 302.597 197.088 301.795C198.212 300.993 198.473 299.432 197.672 298.308C196.866 297.175 195.915 296.271 194.879 295.616C193.974 295.041 193.014 294.659 192.07 294.428C190.411 294.022 188.818 294.047 187.356 294.164C185.171 294.353 183.203 294.727 181.812 294.683C181.116 294.668 180.599 294.564 180.231 294.404C179.86 294.238 179.591 294.049 179.255 293.591C178.453 292.466 176.892 292.205 175.768 293.007C174.644 293.809 174.382 295.37 175.184 296.494Z" fill="#FF570A"/>
<path d="M218.211 225.435L213.839 261.037C213.67 262.407 214.645 263.655 216.016 263.822C217.386 263.991 218.634 263.017 218.801 261.646L223.173 226.045C223.342 224.674 222.367 223.427 220.996 223.259C219.626 223.09 218.378 224.065 218.211 225.435Z" fill="#FF570A"/>
<path d="M219.296 379.825L247.171 402.398C248.244 403.268 249.818 403.102 250.686 402.028C251.556 400.956 251.391 399.381 250.317 398.513L222.442 375.94C221.369 375.07 219.795 375.236 218.926 376.309C218.056 377.382 218.222 378.957 219.296 379.825Z" fill="#FF570A"/>
<path d="M338.909 265.346L366.184 288.64C367.234 289.538 368.812 289.414 369.708 288.363C370.605 287.313 370.481 285.735 369.431 284.839L342.156 261.544C341.106 260.647 339.528 260.771 338.632 261.821C337.734 262.871 337.859 264.449 338.909 265.346Z" fill="#17BEBB"/>
<path d="M274.729 220.155L273.16 222.101C273.741 222.57 274.136 223.156 274.361 223.805C274.565 224.398 274.619 225.038 274.517 225.656C274.413 226.275 274.16 226.866 273.734 227.397C273.265 227.979 272.678 228.374 272.028 228.599C271.437 228.802 270.797 228.857 270.179 228.755C269.561 228.652 268.969 228.399 268.439 227.972C267.862 227.507 267.467 226.922 267.242 226.272C267.038 225.68 266.983 225.038 267.085 224.42C267.188 223.8 267.441 223.208 267.867 222.678L267.868 222.677C268.334 222.097 268.919 221.704 269.568 221.479C270.161 221.275 270.802 221.22 271.421 221.322C272.04 221.425 272.633 221.678 273.162 222.103L273.16 222.101L274.729 220.155L276.296 218.206C275.085 217.231 273.674 216.625 272.234 216.389C270.793 216.152 269.318 216.277 267.94 216.751C266.434 217.269 265.038 218.214 263.971 219.544L263.973 219.542C262.995 220.754 262.388 222.165 262.152 223.606C261.914 225.048 262.04 226.523 262.514 227.899C263.032 229.406 263.976 230.799 265.303 231.868C266.515 232.844 267.924 233.451 269.365 233.688C270.806 233.925 272.28 233.8 273.656 233.327C275.164 232.808 276.56 231.863 277.628 230.533C278.604 229.323 279.212 227.913 279.45 226.472C279.688 225.03 279.562 223.556 279.088 222.178C278.571 220.671 277.625 219.277 276.298 218.208L276.296 218.206L274.729 220.155Z" fill="#17BEBB"/>
<path d="M108.263 400.158L106.694 402.105C107.275 402.573 107.67 403.16 107.895 403.809C108.099 404.402 108.153 405.042 108.051 405.66C107.947 406.278 107.694 406.87 107.268 407.401C106.799 407.982 106.212 408.377 105.562 408.602C104.971 408.806 104.331 408.86 103.713 408.759C103.095 408.656 102.503 408.402 101.973 407.976C101.396 407.51 101.001 406.925 100.776 406.275C100.572 405.683 100.517 405.041 100.619 404.423C100.722 403.804 100.975 403.211 101.401 402.682L101.402 402.68C101.868 402.101 102.453 401.707 103.102 401.482C103.695 401.278 104.336 401.224 104.955 401.326C105.574 401.429 106.167 401.681 106.696 402.106L106.694 402.105L108.263 400.158L109.83 398.21C108.618 397.234 107.208 396.628 105.768 396.392C104.327 396.156 102.852 396.28 101.474 396.755C99.9677 397.273 98.5723 398.217 97.5051 399.547L97.5067 399.546C96.5291 400.758 95.9222 402.168 95.6857 403.61C95.4482 405.052 95.574 406.526 96.048 407.903C96.5657 409.409 97.5098 410.803 98.8369 411.871C100.049 412.848 101.458 413.455 102.899 413.692C104.34 413.929 105.814 413.804 107.19 413.33C108.698 412.812 110.094 411.866 111.162 410.537C112.138 409.326 112.746 407.916 112.984 406.475C113.221 405.033 113.096 403.559 112.622 402.181C112.105 400.675 111.159 399.28 109.832 398.211L109.83 398.21L108.263 400.158Z" fill="#17BEBB"/>
<path d="M400.317 256.233L398.748 258.18C399.329 258.648 399.724 259.234 399.949 259.884C400.153 260.476 400.207 261.117 400.105 261.735C400.001 262.353 399.748 262.945 399.322 263.475C398.852 264.057 398.266 264.452 397.616 264.677C397.025 264.881 396.385 264.935 395.767 264.834C395.149 264.73 394.557 264.477 394.027 264.051C393.45 263.585 393.055 263 392.83 262.35C392.626 261.758 392.571 261.116 392.673 260.498C392.776 259.878 393.029 259.286 393.455 258.756L393.456 258.755C393.922 258.176 394.507 257.782 395.156 257.557C395.749 257.353 396.39 257.298 397.009 257.4C397.628 257.503 398.221 257.756 398.75 258.181L398.748 258.18L400.317 256.233L401.884 254.284C400.672 253.309 399.262 252.703 397.822 252.467C396.38 252.23 394.906 252.355 393.528 252.83C392.022 253.347 390.626 254.292 389.559 255.622L389.561 255.62C388.583 256.833 387.976 258.243 387.74 259.685C387.502 261.126 387.628 262.601 388.102 263.978C388.62 265.484 389.564 266.878 390.891 267.946C392.103 268.922 393.512 269.53 394.953 269.766C396.394 270.003 397.868 269.878 399.244 269.405C400.752 268.886 402.147 267.941 403.216 266.611C404.192 265.401 404.8 263.991 405.038 262.55C405.275 261.108 405.15 259.634 404.676 258.256C404.158 256.749 403.213 255.355 401.886 254.286L401.884 254.284L400.317 256.233Z" fill="#FF570A"/>
<path d="M194.613 337.638L193.045 339.585C193.625 340.054 194.02 340.64 194.245 341.289C194.449 341.882 194.503 342.522 194.401 343.14C194.298 343.759 194.044 344.35 193.618 344.881C193.149 345.463 192.562 345.858 191.912 346.083C191.321 346.286 190.681 346.341 190.063 346.239C189.445 346.136 188.853 345.883 188.323 345.456C187.746 344.991 187.351 344.406 187.126 343.755C186.922 343.164 186.867 342.521 186.969 341.903C187.072 341.284 187.325 340.692 187.751 340.162L187.752 340.161C188.218 339.581 188.803 339.188 189.452 338.963C190.045 338.759 190.686 338.704 191.305 338.806C191.924 338.909 192.517 339.162 193.046 339.587L193.045 339.585L194.613 337.638L196.18 335.69C194.969 334.714 193.558 334.109 192.118 333.873C190.677 333.636 189.202 333.761 187.824 334.235C186.318 334.753 184.922 335.698 183.855 337.028L183.857 337.026C182.879 338.238 182.272 339.649 182.036 341.09C181.798 342.532 181.924 344.007 182.398 345.383C182.916 346.89 183.86 348.283 185.187 349.351C186.399 350.328 187.808 350.935 189.249 351.172C190.69 351.409 192.164 351.284 193.54 350.81C195.048 350.292 196.444 349.346 197.512 348.017C198.488 346.806 199.096 345.397 199.334 343.956C199.572 342.514 199.446 341.039 198.972 339.662C198.455 338.155 197.509 336.761 196.182 335.692L196.18 335.69L194.613 337.638Z" fill="#17BEBB"/>
<path d="M325.477 149.963L345.918 154.37C347.267 154.66 348.598 153.803 348.889 152.452C349.179 151.103 348.321 149.773 346.971 149.482L326.53 145.076C325.181 144.785 323.85 145.643 323.56 146.992C323.269 148.342 324.128 149.673 325.477 149.963Z" fill="#17BEBB"/>
<path d="M335.984 138.972L331.576 159.414C331.286 160.763 332.143 162.094 333.493 162.384C334.843 162.676 336.172 161.817 336.464 160.467L340.872 140.025C341.162 138.676 340.305 137.345 338.955 137.055C337.606 136.764 336.276 137.622 335.984 138.972Z" fill="#17BEBB"/>
<path d="M281.96 108.646C282.891 105.049 285.172 102.189 288.124 100.439C291.079 98.692 294.665 98.0773 298.236 98.9997C301.806 99.9241 304.644 102.2 306.382 105.161C308.114 108.123 308.722 111.729 307.793 115.327C307.448 116.664 308.251 118.027 309.587 118.373C310.924 118.719 312.287 117.915 312.633 116.578C313.906 111.667 313.072 106.682 310.695 102.632C308.325 98.5806 304.387 95.424 299.488 94.159C294.589 92.8901 289.615 93.7417 285.577 96.1359C281.535 98.526 278.389 102.481 277.12 107.394C276.774 108.731 277.577 110.095 278.914 110.44C280.251 110.786 281.615 109.983 281.96 108.646Z" fill="#17BEBB"/>
<path d="M335.701 117.895L351.985 85.9357C352.613 84.7055 352.124 83.2 350.893 82.5737C349.663 81.9461 348.157 82.4353 347.531 83.6661L331.247 115.625C330.619 116.855 331.108 118.361 332.339 118.987C333.569 119.615 335.075 119.126 335.701 117.895Z" fill="#FF570A"/>
<path d="M299.568 150.809L301.799 151.939C302.136 151.274 302.628 150.765 303.216 150.41C303.753 150.087 304.368 149.901 304.994 149.873C305.62 149.845 306.252 149.97 306.86 150.277C307.526 150.615 308.035 151.106 308.39 151.695C308.712 152.231 308.898 152.846 308.927 153.471C308.955 154.097 308.83 154.729 308.523 155.337C308.188 155.998 307.698 156.506 307.108 156.861C306.572 157.184 305.955 157.371 305.329 157.399C304.702 157.427 304.07 157.303 303.463 156.997L303.462 156.995C302.798 156.66 302.292 156.17 301.937 155.582C301.614 155.044 301.427 154.429 301.398 153.802C301.37 153.175 301.494 152.543 301.8 151.937L301.799 151.939L299.568 150.809L297.337 149.681C296.634 151.069 296.335 152.575 296.403 154.032C296.472 155.492 296.901 156.908 297.651 158.157C298.471 159.523 299.685 160.692 301.208 161.459L301.206 161.458C302.595 162.162 304.1 162.462 305.56 162.394C307.019 162.326 308.435 161.897 309.683 161.147C311.049 160.327 312.216 159.114 312.985 157.594C313.688 156.205 313.989 154.7 313.922 153.242C313.854 151.784 313.425 150.367 312.676 149.12C311.855 147.752 310.64 146.584 309.117 145.816C307.73 145.113 306.225 144.811 304.766 144.878C303.306 144.945 301.89 145.375 300.641 146.125C299.275 146.944 298.108 148.159 297.338 149.679L297.337 149.681L299.568 150.809Z" fill="#17BEBB"/>
<path d="M319.013 224.584L321.377 223.77L311.885 196.203L337.086 187.525L345.765 212.728L318.199 222.22L319.013 224.584L321.377 223.77L319.013 224.584L319.827 226.947L349.756 216.642C350.379 216.427 350.901 215.965 351.189 215.374C351.478 214.782 351.52 214.086 351.306 213.464L341 183.534C340.786 182.911 340.325 182.389 339.733 182.101C339.141 181.812 338.446 181.769 337.822 181.984L307.893 192.289C307.271 192.504 306.749 192.966 306.46 193.558C306.172 194.149 306.129 194.845 306.343 195.467L316.649 225.397C316.863 226.02 317.325 226.542 317.917 226.831C318.509 227.119 319.205 227.162 319.827 226.947L319.013 224.584Z" fill="#FF570A"/>
<path d="M112.633 362.422L114.447 360.701L94.3775 339.553L113.712 321.205L132.06 340.54L110.912 360.608L112.633 362.422L114.447 360.701L112.633 362.422L114.354 364.235L137.315 342.446C137.793 341.992 138.076 341.355 138.094 340.698C138.111 340.039 137.86 339.389 137.408 338.912L115.618 315.95C115.165 315.473 114.528 315.189 113.87 315.172C113.212 315.154 112.561 315.404 112.083 315.857L89.1223 337.647C88.645 338.099 88.3617 338.736 88.3444 339.395C88.3272 340.053 88.5768 340.704 89.0298 341.181L110.82 364.143C111.273 364.62 111.91 364.903 112.568 364.921C113.226 364.938 113.877 364.688 114.354 364.235L112.633 362.422Z" fill="#FF570A"/>
<path d="M328.317 358.109L329.751 356.062L305.868 339.339L321.156 317.505L342.991 332.794L326.269 356.676L328.317 358.109L330.365 359.543L348.521 333.614C348.899 333.074 349.049 332.393 348.935 331.746C348.821 331.097 348.446 330.51 347.907 330.132L321.976 311.976C321.437 311.598 320.757 311.447 320.109 311.562C319.461 311.675 318.873 312.05 318.495 312.59L300.339 338.519C299.961 339.058 299.811 339.739 299.925 340.388C300.039 341.035 300.414 341.623 300.953 342.001L326.883 360.157C327.422 360.535 328.102 360.685 328.751 360.572C329.399 360.457 329.987 360.082 330.365 359.543L328.317 358.109Z" fill="#17BEBB"/>
<path d="M274.393 263.114L274.218 260.619L253.29 262.095C252.399 262.159 251.609 262.692 251.218 263.495C250.827 264.298 250.895 265.25 251.395 265.989L263.138 283.365L274.88 300.75C275.38 301.49 276.237 301.907 277.128 301.845C278.019 301.781 278.808 301.248 279.2 300.445L288.379 281.587L297.566 262.73C297.957 261.927 297.89 260.976 297.39 260.235C296.89 259.496 296.033 259.078 295.142 259.14L274.218 260.619L274.393 263.114L274.57 265.607L291.173 264.434L283.884 279.398L276.599 294.362L267.282 280.565L257.963 266.779L274.57 265.607L274.393 263.114Z" fill="#FF570A"/>
<path d="M96.3555 163.066L107.44 128.953C107.867 127.64 107.148 126.229 105.835 125.803C104.522 125.376 103.111 126.095 102.685 127.408L91.6009 161.521C91.1735 162.835 91.8922 164.245 93.2058 164.671C94.519 165.098 95.9294 164.38 96.3555 163.066Z" fill="#17BEBB"/>
<path d="M186.112 137.353L183.671 136.812L177.361 165.276L151.338 159.507L157.108 133.484L185.571 139.794L186.112 137.353L186.653 134.913L155.749 128.061C155.106 127.919 154.419 128.04 153.865 128.393C153.309 128.747 152.91 129.319 152.767 129.961L145.916 160.866C145.773 161.508 145.894 162.194 146.248 162.749C146.601 163.305 147.172 163.705 147.815 163.847L178.719 170.699C179.362 170.841 180.048 170.72 180.604 170.366C181.159 170.012 181.559 169.441 181.701 168.799L188.552 137.894C188.695 137.252 188.574 136.565 188.22 136.01C187.866 135.455 187.295 135.055 186.653 134.913L186.112 137.353Z" fill="#17BEBB"/>
<path d="M118.983 223.525L116.745 224.642L126.117 243.412C126.517 244.211 127.312 244.737 128.203 244.791C129.095 244.844 129.948 244.418 130.44 243.673L141.999 226.174L153.567 208.673C154.059 207.928 154.118 206.976 153.719 206.177C153.319 205.378 152.525 204.853 151.632 204.798L130.698 203.535L109.76 202.263C108.869 202.21 108.015 202.635 107.522 203.381C107.031 204.125 106.972 205.077 107.371 205.876L116.745 224.642L118.983 223.525L121.219 222.408L113.781 207.517L130.395 208.525L147.008 209.529L137.827 223.417L128.656 237.302L121.219 222.408L118.983 223.525Z" fill="#FF570A"/>
<path d="M385.498 147.253L383.056 146.713L378.527 167.198C378.335 168.07 378.622 168.98 379.281 169.583C379.94 170.185 380.872 170.391 381.723 170.122L401.718 163.796L421.722 157.476C422.573 157.206 423.217 156.504 423.41 155.631C423.603 154.759 423.316 153.851 422.657 153.247L407.183 139.09L391.711 124.926C391.052 124.323 390.121 124.116 389.269 124.386C388.418 124.655 387.774 125.358 387.581 126.23L383.056 146.713L385.498 147.253L387.939 147.792L391.529 131.539L403.807 142.778L416.086 154.013L400.211 159.029L384.345 164.047L387.939 147.792L385.498 147.253Z" fill="#17BEBB"/>
<path d="M209.841 424.16L207.548 425.158L215.925 444.393C216.282 445.211 217.049 445.778 217.936 445.879C218.823 445.979 219.698 445.598 220.228 444.88L232.687 428.01L245.156 411.138C245.686 410.42 245.794 409.473 245.437 408.653C245.08 407.835 244.314 407.269 243.426 407.167L222.586 404.81L201.743 402.445C200.856 402.344 199.982 402.724 199.451 403.443C198.92 404.161 198.812 405.108 199.169 405.927L207.548 425.158L209.841 424.16L212.132 423.161L205.484 407.902L222.023 409.778L238.56 411.65L228.665 425.038L218.78 438.424L212.132 423.161L209.841 424.16Z" fill="#FF570A"/>
</svg>
